<svg width="434" height="77" viewBox="0 0 434 77" fill="none" xmlns="http://www.w3.org/2000/svg">
<ellipse cx="37.9557" cy="38.5" rx="37.9557" ry="38.5" fill="#0091AD"/>
<path d="M35.3708 26.2807V44.9187H39.5595V48.125H26.1213V44.9187H31.3378V30.4822L26.7442 33.3726L24.9846 30.4822L31.7426 26.2807H35.3708Z" fill="#CBFF8C"/>
<path d="M50.7976 25.8069C53.2579 25.8069 55.1265 26.7914 56.4034 28.7605C57.6803 30.7191 58.3187 33.52 58.3187 37.1634C58.3187 39.5853 58.0332 41.6491 57.4623 43.355C56.9017 45.0608 56.0608 46.3613 54.9397 47.2563C53.8185 48.1513 52.4378 48.5989 50.7976 48.5989C48.3373 48.5989 46.4687 47.6091 45.1919 45.6294C43.915 43.6498 43.2766 40.8278 43.2766 37.1634C43.2766 33.52 43.915 30.7191 45.1919 28.7605C46.4687 26.7914 48.3373 25.8069 50.7976 25.8069ZM50.7976 28.9027C49.5934 28.9027 48.7007 29.5555 48.1193 30.8612C47.538 32.1564 47.2473 34.2571 47.2473 37.1634C47.2473 39.2272 47.3459 40.8541 47.5432 42.044L53.2735 30.0873C53.0036 29.6661 52.6662 29.366 52.2614 29.187C51.8565 28.9974 51.3686 28.9027 50.7976 28.9027ZM50.7976 45.5031C51.6074 45.5031 52.2666 45.2293 52.7752 44.6817C53.2943 44.1237 53.6836 43.2339 53.9431 42.0124C54.2026 40.7804 54.3324 39.1641 54.3324 37.1634C54.3324 35.5102 54.2701 34.1413 54.1455 33.0567L48.5709 44.6502C48.8304 44.945 49.1419 45.1609 49.5052 45.2977C49.8685 45.4346 50.2994 45.5031 50.7976 45.5031Z" fill="#CBFF8C"/>
<path d="M69.4789 25.8069C71.9393 25.8069 73.8078 26.7914 75.0847 28.7605C76.3616 30.7191 77 33.52 77 37.1634C77 39.5853 76.7145 41.6491 76.1436 43.355C75.583 45.0608 74.7421 46.3613 73.621 47.2563C72.4998 48.1513 71.1192 48.5989 69.4789 48.5989C67.0186 48.5989 65.1501 47.6091 63.8732 45.6294C62.5963 43.6498 61.9579 40.8278 61.9579 37.1634C61.9579 33.52 62.5963 30.7191 63.8732 28.7605C65.1501 26.7914 67.0186 25.8069 69.4789 25.8069ZM69.4789 28.9027C68.2747 28.9027 67.382 29.5555 66.8006 30.8612C66.2193 32.1564 65.9286 34.2571 65.9286 37.1634C65.9286 39.2272 66.0273 40.8541 66.2245 42.044L71.9548 30.0873C71.6849 29.6661 71.3475 29.366 70.9427 29.187C70.5378 28.9974 70.0499 28.9027 69.4789 28.9027ZM69.4789 45.5031C70.2887 45.5031 70.9479 45.2293 71.4565 44.6817C71.9756 44.1237 72.3649 43.2339 72.6244 42.0124C72.8839 40.7804 73.0137 39.1641 73.0137 37.1634C73.0137 35.5102 72.9514 34.1413 72.8268 33.0567L67.2522 44.6502C67.5117 44.945 67.8232 45.1609 68.1865 45.2977C68.5498 45.4346 68.9807 45.5031 69.4789 45.5031Z" fill="#CBFF8C"/>
<path d="M98.6313 28.7948C99.737 28.7948 100.64 29.1817 101.34 29.9557C102.04 30.7174 102.39 32.1178 102.39 34.1571V48.6042H99.5158V34.6547C99.5158 33.7333 99.4851 33.0453 99.4237 32.5908C99.3623 32.124 99.2271 31.78 99.0183 31.5589C98.8094 31.3255 98.4778 31.2088 98.0232 31.2088C96.7579 31.2088 95.6277 31.9827 94.6326 33.5306V48.6042H91.7395V34.6547C91.7395 33.7333 91.7088 33.0453 91.6474 32.5908C91.5859 32.124 91.4508 31.78 91.2419 31.5589C91.0331 31.3255 90.7014 31.2088 90.2469 31.2088C88.9815 31.2088 87.8513 31.9827 86.8562 33.5306V48.6042H84V29.2002H86.4324L86.6167 31.4483C87.2064 30.6006 87.8329 29.9495 88.4963 29.495C89.1597 29.0282 89.9397 28.7948 90.8365 28.7948C92.667 28.7948 93.8402 29.6486 94.3562 31.3562C94.9336 30.5208 95.5539 29.8881 96.2173 29.4582C96.893 29.0159 97.6977 28.7948 98.6313 28.7948Z" fill="black"/>
<path d="M117.274 48.7332C116.771 50.1828 116.169 51.4358 115.469 52.4923C114.781 53.5488 113.871 54.4211 112.741 55.109C111.623 55.8093 110.247 56.2392 108.614 56.3989L108.134 53.9297C109.437 53.7085 110.475 53.3769 111.249 52.9346C112.035 52.4923 112.649 51.9334 113.091 51.2577C113.534 50.582 113.945 49.6975 114.326 48.6042H113.294L106.513 29.2002H109.83L115.395 46.2455L120.886 29.2002H124.093L117.274 48.7332Z" fill="black"/>
<path d="M146.513 31.7984H143.252L142.164 39.9617H145.15V42.3573H141.814L141.04 48.6042H138.387L139.216 42.3573H133.854L133.043 48.6042H130.389L131.218 42.3573H128.307V39.9617H131.532L132.656 31.7984H129.671V29.3844H132.969L133.78 23.2297H136.433L135.549 29.3844H140.967L141.777 23.2297H144.431L143.565 29.3844H146.513V31.7984ZM135.254 31.7984L134.167 39.9617H139.529L140.653 31.7984H135.254Z" fill="black"/>
<path d="M162.226 23.2297V46.0796H167.533V48.6042H152.884V46.0796H159.131V26.5835L153.307 30.1215L151.962 27.9103L159.518 23.2297H162.226Z" fill="black"/>
<path d="M181.625 22.8243C184.34 22.8243 186.404 23.9484 187.817 26.1965C189.229 28.4447 189.936 31.6817 189.936 35.9077C189.936 40.146 189.229 43.3954 187.817 45.6558C186.404 47.9039 184.34 49.028 181.625 49.028C178.91 49.028 176.846 47.9039 175.433 45.6558C174.021 43.3954 173.314 40.146 173.314 35.9077C173.314 31.6817 174.021 28.4447 175.433 26.1965C176.846 23.9484 178.91 22.8243 181.625 22.8243ZM181.625 25.312C178.271 25.312 176.594 28.8439 176.594 35.9077C176.594 38.7333 176.809 40.9445 177.239 42.5416L184.997 26.952C184.235 25.8587 183.111 25.312 181.625 25.312ZM181.625 46.5219C184.991 46.5219 186.674 42.9838 186.674 35.9077C186.674 33.0331 186.453 30.8095 186.011 29.237L178.29 44.9003C178.695 45.4531 179.168 45.8646 179.708 46.1349C180.261 46.3929 180.9 46.5219 181.625 46.5219Z" fill="black"/>
<path d="M203.732 22.8243C206.447 22.8243 208.511 23.9484 209.924 26.1965C211.337 28.4447 212.043 31.6817 212.043 35.9077C212.043 40.146 211.337 43.3954 209.924 45.6558C208.511 47.9039 206.447 49.028 203.732 49.028C201.017 49.028 198.954 47.9039 197.541 45.6558C196.128 43.3954 195.422 40.146 195.422 35.9077C195.422 31.6817 196.128 28.4447 197.541 26.1965C198.954 23.9484 201.017 22.8243 203.732 22.8243ZM203.732 25.312C200.379 25.312 198.702 28.8439 198.702 35.9077C198.702 38.7333 198.917 40.9445 199.347 42.5416L207.105 26.952C206.343 25.8587 205.219 25.312 203.732 25.312ZM203.732 46.5219C207.098 46.5219 208.781 42.9838 208.781 35.9077C208.781 33.0331 208.56 30.8095 208.118 29.237L200.397 44.9003C200.802 45.4531 201.275 45.8646 201.816 46.1349C202.369 46.3929 203.008 46.5219 203.732 46.5219Z" fill="black"/>
<path d="M230.096 21L233.192 21.387V48.6042H230.483L230.189 46.0428C229.476 47.0501 228.653 47.7995 227.719 48.2909C226.786 48.7823 225.772 49.028 224.679 49.028C222.222 49.028 220.373 48.1251 219.132 46.3192C217.904 44.5133 217.289 42.0502 217.289 38.9298C217.289 36.9765 217.59 35.2321 218.192 33.6964C218.807 32.1608 219.685 30.9631 220.828 30.1031C221.982 29.2309 223.34 28.7948 224.9 28.7948C226.006 28.7948 226.982 28.9852 227.83 29.366C228.69 29.7468 229.445 30.3181 230.096 31.0798V21ZM225.711 31.2825C224.077 31.2825 222.824 31.9274 221.952 33.2173C221.092 34.495 220.662 36.3991 220.662 38.9298C220.662 41.4359 221.055 43.3278 221.841 44.6054C222.64 45.8831 223.8 46.5219 225.324 46.5219C227.154 46.5219 228.745 45.5022 230.096 43.4629V33.7702C229.568 32.9839 228.923 32.3758 228.162 31.9458C227.412 31.5036 226.595 31.2825 225.711 31.2825Z" fill="black"/>
<path d="M254.489 44.3659C254.489 45.1275 254.612 45.6926 254.857 46.0612C255.103 46.4175 255.509 46.6816 256.074 46.8536L255.318 49.028C253.451 48.7823 252.265 47.8732 251.762 46.3007C251.074 47.1975 250.201 47.8794 249.145 48.3462C248.101 48.8007 246.946 49.028 245.681 49.028C244.403 49.028 243.291 48.7823 242.345 48.2909C241.399 47.7995 240.675 47.1054 240.171 46.2086C239.667 45.2995 239.415 44.243 239.415 43.0391C239.415 41.0367 240.195 39.5011 241.756 38.4323C243.316 37.3635 245.57 36.8291 248.518 36.8291H251.375V35.2075C251.375 33.8561 250.982 32.8795 250.195 32.2775C249.409 31.6633 248.26 31.3562 246.749 31.3562C245.288 31.3562 243.604 31.6879 241.7 32.3512L240.89 30.011C243.052 29.2002 245.165 28.7948 247.229 28.7948C249.6 28.7948 251.399 29.3537 252.628 30.4717C253.869 31.5773 254.489 33.1068 254.489 35.0601V44.3659ZM246.473 46.6693C247.431 46.6693 248.34 46.4297 249.2 45.9506C250.072 45.4592 250.797 44.7836 251.375 43.9236V38.9298H248.574C246.522 38.9298 245.036 39.2799 244.114 39.9802C243.193 40.6804 242.732 41.6878 242.732 43.0023C242.732 45.447 243.979 46.6693 246.473 46.6693Z" fill="black"/>
<path d="M272.026 48.7332C271.523 50.1828 270.921 51.4358 270.22 52.4923C269.533 53.5488 268.623 54.4211 267.493 55.109C266.375 55.8093 264.999 56.2392 263.365 56.3989L262.886 53.9297C264.189 53.7085 265.227 53.3769 266.001 52.9346C266.787 52.4923 267.401 51.9334 267.843 51.2577C268.286 50.582 268.697 49.6975 269.078 48.6042H268.046L261.265 29.2002H264.582L270.147 46.2455L275.638 29.2002H278.844L272.026 48.7332Z" fill="black"/>
<path d="M291.407 46.4666C292.893 46.4666 294.066 46.1902 294.926 45.6374C295.798 45.0845 296.234 44.3352 296.234 43.3892C296.234 42.7504 296.118 42.2283 295.884 41.8229C295.663 41.4052 295.215 41.0244 294.539 40.6804C293.876 40.3364 292.875 39.9986 291.536 39.6669C290.049 39.2984 288.833 38.8991 287.887 38.4691C286.953 38.0269 286.222 37.4556 285.694 36.7554C285.178 36.0551 284.92 35.1645 284.92 34.0834C284.92 33.0146 285.227 32.081 285.841 31.2825C286.456 30.4839 287.316 29.8697 288.421 29.4397C289.539 29.0098 290.829 28.7948 292.291 28.7948C293.753 28.7948 295.067 28.9913 296.234 29.3844C297.414 29.7653 298.446 30.2812 299.33 30.9323L297.967 33.0331C297.156 32.4802 296.302 32.0564 295.405 31.7616C294.521 31.4544 293.495 31.3009 292.328 31.3009C290.866 31.3009 289.797 31.5282 289.122 31.9827C288.458 32.425 288.126 33.0453 288.126 33.8439C288.126 34.4213 288.28 34.8942 288.587 35.2628C288.907 35.6313 289.416 35.963 290.117 36.2578C290.829 36.5404 291.886 36.8721 293.286 37.2529C294.687 37.6338 295.835 38.0576 296.732 38.5244C297.629 38.9912 298.329 39.6055 298.833 40.3671C299.336 41.1165 299.588 42.0747 299.588 43.2418C299.588 44.5563 299.207 45.6497 298.446 46.5219C297.684 47.3818 296.683 48.0145 295.442 48.4199C294.214 48.8253 292.868 49.028 291.407 49.028C288.36 49.028 285.829 48.1558 283.814 46.4113L285.583 44.3659C286.37 45.0293 287.26 45.5452 288.255 45.9138C289.251 46.2823 290.301 46.4666 291.407 46.4666Z" fill="black"/>
<path d="M314.306 28.7948C316.1 28.7948 317.617 29.2063 318.858 30.0294C320.099 30.8402 321.032 32.0073 321.659 33.5306C322.298 35.0416 322.617 36.8291 322.617 38.893C322.617 40.8954 322.292 42.6583 321.64 44.1816C321.002 45.7049 320.056 46.8966 318.803 47.7565C317.55 48.6042 316.038 49.028 314.269 49.028C312.476 49.028 310.953 48.6165 309.699 47.7934C308.459 46.958 307.519 45.7848 306.88 44.2737C306.241 42.7627 305.922 40.9814 305.922 38.9298C305.922 36.9151 306.241 35.1461 306.88 33.6227C307.531 32.0994 308.483 30.9139 309.736 30.0663C311.002 29.2186 312.525 28.7948 314.306 28.7948ZM314.306 31.3193C312.623 31.3193 311.358 31.9458 310.51 33.1989C309.663 34.4397 309.239 36.35 309.239 38.9298C309.239 41.4728 309.656 43.3708 310.492 44.6239C311.327 45.8646 312.586 46.485 314.269 46.485C315.952 46.485 317.212 45.8646 318.047 44.6239C318.882 43.3708 319.3 41.4605 319.3 38.893C319.3 36.3377 318.882 34.4397 318.047 33.1989C317.212 31.9458 315.965 31.3193 314.306 31.3193Z" fill="black"/>
<path d="M340.486 21C341.494 21 342.421 21.0921 343.269 21.2764C344.116 21.4484 344.939 21.7064 345.738 22.0504L344.743 24.3538C343.539 23.8132 342.151 23.543 340.578 23.543C337.863 23.543 336.506 24.6179 336.506 26.7678V30.7112H343.084L342.753 33.1436H336.506V48.6042H333.41V33.1436H328.785V30.7112H333.41V26.8415C333.41 25.6744 333.717 24.6486 334.331 23.7641C334.946 22.8796 335.787 22.1978 336.856 21.7187C337.925 21.2396 339.135 21 340.486 21Z" fill="black"/>
<path d="M359.903 46.356C361.635 46.356 363.318 45.7909 364.952 44.6607L366.463 46.6877C365.616 47.4002 364.596 47.9715 363.404 48.4015C362.213 48.8192 361.046 49.028 359.903 49.028C357.999 49.028 356.359 48.6165 354.983 47.7934C353.619 46.9703 352.581 45.8032 351.869 44.2922C351.156 42.7811 350.8 41.0121 350.8 38.9851C350.8 37.0318 351.162 35.2873 351.887 33.7517C352.612 32.2038 353.662 30.9938 355.038 30.1215C356.414 29.237 358.048 28.7948 359.94 28.7948C362.409 28.7948 364.571 29.5441 366.426 31.0429L364.915 33.1068C363.245 31.952 361.574 31.3746 359.903 31.3746C358.761 31.3746 357.759 31.6572 356.9 32.2223C356.04 32.7874 355.364 33.6412 354.873 34.7837C354.393 35.9262 354.154 37.3266 354.154 38.9851C354.154 41.4666 354.67 43.3155 355.702 44.5317C356.746 45.7479 358.146 46.356 359.903 46.356Z" fill="black"/>
<path d="M380.629 28.7948C382.422 28.7948 383.939 29.2063 385.18 30.0294C386.421 30.8402 387.355 32.0073 387.981 33.5306C388.62 35.0416 388.939 36.8291 388.939 38.893C388.939 40.8954 388.614 42.6583 387.963 44.1816C387.324 45.7049 386.378 46.8966 385.125 47.7565C383.872 48.6042 382.361 49.028 380.592 49.028C378.798 49.028 377.275 48.6165 376.022 47.7934C374.781 46.958 373.841 45.7848 373.202 44.2737C372.564 42.7627 372.244 40.9814 372.244 38.9298C372.244 36.9151 372.564 35.1461 373.202 33.6227C373.853 32.0994 374.806 30.9139 376.059 30.0663C377.324 29.2186 378.847 28.7948 380.629 28.7948ZM380.629 31.3193C378.946 31.3193 377.68 31.9458 376.833 33.1989C375.985 34.4397 375.561 36.35 375.561 38.9298C375.561 41.4728 375.979 43.3708 376.814 44.6239C377.649 45.8646 378.909 46.485 380.592 46.485C382.275 46.485 383.534 45.8646 384.369 44.6239C385.205 43.3708 385.622 41.4605 385.622 38.893C385.622 36.3377 385.205 34.4397 384.369 33.1989C383.534 31.9458 382.287 31.3193 380.629 31.3193Z" fill="black"/>
<path d="M406.956 21L410.052 21.387V48.6042H407.343L407.048 46.0428C406.335 47.0501 405.512 47.7995 404.579 48.2909C403.645 48.7823 402.632 49.028 401.538 49.028C399.081 49.028 397.232 48.1251 395.992 46.3192C394.763 44.5133 394.149 42.0502 394.149 38.9298C394.149 36.9765 394.45 35.2321 395.052 33.6964C395.666 32.1608 396.544 30.9631 397.687 30.1031C398.842 29.2309 400.199 28.7948 401.759 28.7948C402.865 28.7948 403.842 28.9852 404.689 29.366C405.549 29.7468 406.305 30.3181 406.956 31.0798V21ZM402.57 31.2825C400.936 31.2825 399.683 31.9274 398.811 33.2173C397.951 34.495 397.521 36.3991 397.521 38.9298C397.521 41.4359 397.914 43.3278 398.7 44.6054C399.499 45.8831 400.66 46.5219 402.183 46.5219C404.014 46.5219 405.605 45.5022 406.956 43.4629V33.7702C406.428 32.9839 405.783 32.3758 405.021 31.9458C404.272 31.5036 403.455 31.2825 402.57 31.2825Z" fill="black"/>
<path d="M419.886 39.9986C419.936 41.4482 420.218 42.6583 420.734 43.6288C421.25 44.587 421.926 45.2995 422.761 45.7664C423.597 46.2209 424.53 46.4482 425.562 46.4482C426.52 46.4482 427.399 46.3069 428.197 46.0243C429.008 45.7418 429.856 45.2995 430.74 44.6976L432.196 46.743C431.287 47.4555 430.243 48.0145 429.063 48.4199C427.896 48.8253 426.717 49.028 425.525 49.028C423.67 49.028 422.073 48.6103 420.734 47.7749C419.395 46.9396 418.375 45.7602 417.675 44.2369C416.987 42.7136 416.643 40.9445 416.643 38.9298C416.643 36.9765 416.993 35.2321 417.694 33.6964C418.394 32.1608 419.383 30.9631 420.66 30.1031C421.938 29.2309 423.425 28.7948 425.12 28.7948C426.741 28.7948 428.142 29.1756 429.321 29.9373C430.513 30.6989 431.422 31.7984 432.049 33.2358C432.687 34.6608 433.007 36.35 433.007 38.3033C433.007 38.8684 432.982 39.4335 432.933 39.9986H419.886ZM425.157 31.3377C423.658 31.3377 422.436 31.866 421.49 32.9225C420.556 33.9667 420.028 35.5269 419.905 37.603H430.022C429.985 35.5637 429.536 34.0097 428.676 32.9409C427.816 31.8721 426.643 31.3377 425.157 31.3377Z" fill="black"/>
</svg>
